<svg xmlns="http://www.w3.org/2000/svg" viewBox="0 0 48 48" width="48" height="48">
  <defs>
    <linearGradient id="g" x1="0" y1="0" x2="1" y2="1">
      <stop offset="0%" stop-color="#2563eb"/>
      <stop offset="100%" stop-color="#22c55e"/>
    </linearGradient>
  </defs>
  <rect x="2" y="2" width="44" height="44" rx="10" fill="url(#g)"/>
  <g fill="#ffffff">
    <path d="M12 16h24a2 2 0 0 1 2 2v12a2 2 0 0 1-2 2H12a2 2 0 0 1-2-2V18a2 2 0 0 1 2-2zm0 3v1.2l12 6.8 12-6.8V19l-12 6.8L12 19z"/>
    <circle cx="36" cy="34" r="4" fill-opacity="0.2"/>
  </g>
</svg>
